<?xml version="1.0" encoding="UTF-8" standalone="no"?>
<svg
   xmlns:dc="http://purl.org/dc/elements/1.1/"
   xmlns:cc="http://creativecommons.org/ns#"
   xmlns:rdf="http://www.w3.org/1999/02/22-rdf-syntax-ns#"
   xmlns:svg="http://www.w3.org/2000/svg"
   xmlns="http://www.w3.org/2000/svg"
   width="762.00531"
   height="293.1268"
   viewBox="0 0 201.61391 77.556465"
   version="1.1"
   id="svg954">
  <defs
     id="defs948" />
  <metadata
     id="metadata951">
    <rdf:RDF>
      <cc:Work
         rdf:about="">
        <dc:format>image/svg+xml</dc:format>
        <dc:type
           rdf:resource="http://purl.org/dc/dcmitype/StillImage" />
        <dc:title></dc:title>
        <cc:license
           rdf:resource="" />
      </cc:Work>
    </rdf:RDF>
  </metadata>
  <g
     id="g4642">
    <path
       style="display:inline;opacity:0.6;fill:#ad5252;fill-opacity:1;stroke:none;stroke-width:0.87;stroke-linecap:butt;stroke-linejoin:round;stroke-miterlimit:4;stroke-dasharray:none;stroke-opacity:1"
       d="M 9.1,59 83,51 87,75 C 53,85 41,65 38,65 35,65 11,65 9.1,59 Z"
       id="path21" />
    <path
       style="opacity:0.6;fill:#ff7e9a;fill-opacity:1;stroke:none;stroke-width:0.87;stroke-linecap:butt;stroke-linejoin:miter;stroke-miterlimit:4;stroke-dasharray:none;stroke-opacity:1"
       d="M 83,51 87,75 130,65 120,45 Z"
       id="path23" />
    <path
       style="opacity:0.6;fill:#9cffa7;fill-opacity:1;stroke:none;stroke-width:0.87;stroke-linecap:butt;stroke-linejoin:miter;stroke-miterlimit:4;stroke-dasharray:none;stroke-opacity:1"
       d="m 200,24 c 0,1 10,16 10,18 -10,3 -50,16 -50,16 L 150,38 c 0,0 50,-15 50,-14 z"
       id="path27" />
    <path
       style="opacity:0.6;fill:#ffbd7e;fill-opacity:1;stroke:none;stroke-width:0.87;stroke-linecap:butt;stroke-linejoin:miter;stroke-miterlimit:4;stroke-dasharray:none;stroke-opacity:1"
       d="m 150,38 -30,7 10,20 30,-7 z"
       id="path25" />
    <path
       style="opacity:0.6;fill:#3c3eff;fill-opacity:1;stroke:none;stroke-width:0.87;stroke-linecap:butt;stroke-linejoin:miter;stroke-miterlimit:4;stroke-dasharray:none;stroke-opacity:1"
       d="M 69,17 73,42 30,53 26,28 Z"
       id="path879" />
    <path
       style="opacity:0.6;fill:#a362ff;fill-opacity:1;stroke:none;stroke-width:0.87;stroke-linecap:round;stroke-linejoin:miter;stroke-miterlimit:4;stroke-dasharray:none;stroke-opacity:1"
       d="m 26,28 4,25 C 30,53 9.1,54 8.1,54 7.1,53 -0.7,40 0,38 0.7,36 26,28 26,28"
       id="path881" />
    <path
       style="opacity:0.6;fill:#438dff;fill-opacity:1;stroke:none;stroke-width:0.87;stroke-linecap:butt;stroke-linejoin:miter;stroke-miterlimit:4;stroke-dasharray:none;stroke-opacity:1"
       d="m 110,13 c 0,1 0,20 0,22 0,3 -37,7 -37,7 L 69,17 c 0,0 27,-6 41,-4 z"
       id="path39" />
    <path
       style="opacity:0.6;fill:#a0fff1;fill-opacity:1;stroke:none;stroke-width:0.87;stroke-linecap:butt;stroke-linejoin:miter;stroke-miterlimit:4;stroke-dasharray:none;stroke-opacity:1"
       d="m 110,8 c 10,-1 30,-7 30,-8 0,0 30,1 40,1 v 15 c -10,4 -30,12 -40,12 0,0 0,-5 -10,-5 0,0 -10,9 -10,9 0,-1 -10,-22 -10,-24 z"
       id="path37" />
  </g>
</svg>
