<?xml version="1.0" encoding="UTF-8" standalone="no"?>
<svg
   xmlns:dc="http://purl.org/dc/elements/1.1/"
   xmlns:cc="http://creativecommons.org/ns#"
   xmlns:rdf="http://www.w3.org/1999/02/22-rdf-syntax-ns#"
   xmlns:svg="http://www.w3.org/2000/svg"
   xmlns="http://www.w3.org/2000/svg"
   xmlns:sodipodi="http://sodipodi.sourceforge.net/DTD/sodipodi-0.dtd"
   xmlns:inkscape="http://www.inkscape.org/namespaces/inkscape"
   id="svg954"
   version="1.1"
   viewBox="0 0 201.61391 77.556465"
   height="293.1268"
   width="762.00531"
   sodipodi:docname="parcelles.svg"
   inkscape:version="0.92.2 5c3e80d, 2017-08-06">
  <sodipodi:namedview
     pagecolor="#ffffff"
     bordercolor="#666666"
     borderopacity="1"
     objecttolerance="10"
     gridtolerance="10"
     guidetolerance="10"
     inkscape:pageopacity="0"
     inkscape:pageshadow="2"
     inkscape:window-width="1920"
     inkscape:window-height="1035"
     id="namedview1383"
     showgrid="false"
     inkscape:zoom="1.2"
     inkscape:cx="2.6e+02"
     inkscape:cy="1.1e+02"
     inkscape:window-x="0"
     inkscape:window-y="20"
     inkscape:window-maximized="1"
     inkscape:current-layer="svg954"
     units="px"
     fit-margin-top="0"
     fit-margin-left="0"
     fit-margin-right="0"
     fit-margin-bottom="0" />
  <defs
     id="defs948" />
  <metadata
     id="metadata951">
    <rdf:RDF>
      <cc:Work
         rdf:about="">
        <dc:format>image/svg+xml</dc:format>
        <dc:type
           rdf:resource="http://purl.org/dc/dcmitype/StillImage" />
        <dc:title></dc:title>
        <cc:license
           rdf:resource="" />
      </cc:Work>
    </rdf:RDF>
  </metadata>
  <g
     id="g4642">
    <path
       inkscape:label="parcelle8"
       id="path21"
       d="M 9.1,59 83,51 87,75 C 53,85 41,65 38,65 35,65 11,65 9.1,59 Z"
       style="display:inline;opacity:0.6;fill:#ad5252;fill-opacity:1;stroke:none;stroke-width:0.87;stroke-linecap:butt;stroke-linejoin:round;stroke-miterlimit:4;stroke-dasharray:none;stroke-opacity:1"
       inkscape:connector-curvature="0" />
    <path
       inkscape:label="parcelle7"
       id="path23"
       d="M 83,51 87,75 130,65 120,45 Z"
       style="opacity:0.6;fill:#ff7e9a;fill-opacity:1;stroke:none;stroke-width:0.87;stroke-linecap:butt;stroke-linejoin:miter;stroke-miterlimit:4;stroke-dasharray:none;stroke-opacity:1"
       inkscape:connector-curvature="0" />
    <path
       inkscape:label="parcelle5"
       id="path27"
       d="m 200,24 c 0,1 10,16 10,18 -10,3 -50,16 -50,16 L 150,38 c 0,0 50,-15 50,-14 z"
       style="opacity:0.6;fill:#9cffa7;fill-opacity:1;stroke:none;stroke-width:0.87;stroke-linecap:butt;stroke-linejoin:miter;stroke-miterlimit:4;stroke-dasharray:none;stroke-opacity:1"
       inkscape:connector-curvature="0" />
    <path
       inkscape:label="parcelle6"
       id="path25"
       d="m 150,38 -30,7 10,20 30,-7 z"
       style="opacity:0.6;fill:#ffbd7e;fill-opacity:1;stroke:none;stroke-width:0.87;stroke-linecap:butt;stroke-linejoin:miter;stroke-miterlimit:4;stroke-dasharray:none;stroke-opacity:1"
       inkscape:connector-curvature="0" />
    <path
       inkscape:label="parcelle3"
       id="path879"
       d="M 69,17 73,42 30,53 26,28 Z"
       style="opacity:0.6;fill:#3c3eff;fill-opacity:1;stroke:none;stroke-width:0.87;stroke-linecap:butt;stroke-linejoin:miter;stroke-miterlimit:4;stroke-dasharray:none;stroke-opacity:1"
       inkscape:connector-curvature="0" />
    <path
       inkscape:label="parcelle4"
       id="path881"
       d="m 26,28 4,25 C 30,53 9.1,54 8.1,54 7.1,53 -0.7,40 0,38 0.7,36 26,28 26,28"
       style="opacity:0.6;fill:#a362ff;fill-opacity:1;stroke:none;stroke-width:0.87;stroke-linecap:round;stroke-linejoin:miter;stroke-miterlimit:4;stroke-dasharray:none;stroke-opacity:1"
       inkscape:connector-curvature="0" />
    <path
       inkscape:label="parcelle2"
       id="path39"
       d="m 110,13 c 0,1 0,20 0,22 0,3 -37,7 -37,7 L 69,17 c 0,0 27,-6 41,-4 z"
       style="opacity:0.6;fill:#438dff;fill-opacity:1;stroke:none;stroke-width:0.87;stroke-linecap:butt;stroke-linejoin:miter;stroke-miterlimit:4;stroke-dasharray:none;stroke-opacity:1"
       inkscape:connector-curvature="0" />
    <path
       inkscape:label="parcelle1"
       id="path37"
       d="m 110,8 c 10,-1 30,-7 30,-8 0,0 30,1 40,1 v 15 c -10,4 -30,12 -40,12 0,0 0,-5 -10,-5 0,0 -10,9 -10,9 0,-1 -10,-22 -10,-24 z"
       style="opacity:0.6;fill:#a0fff1;fill-opacity:1;stroke:none;stroke-width:0.87;stroke-linecap:butt;stroke-linejoin:miter;stroke-miterlimit:4;stroke-dasharray:none;stroke-opacity:1"
       inkscape:connector-curvature="0" />
  </g>
</svg>
